<svg width="40" height="40" viewBox="0 0 40 40" fill="none" xmlns="http://www.w3.org/2000/svg">
<path d="M20.0002 3.33334C13.5502 3.33334 8.3335 8.55 8.3335 15C8.3335 23.75 20.0002 36.6667 20.0002 36.6667C20.0002 36.6667 31.6668 23.75 31.6668 15C31.6668 8.55 26.4502 3.33334 20.0002 3.33334ZM20.0002 19.1667C17.7002 19.1667 15.8335 17.3 15.8335 15C15.8335 12.7 17.7002 10.8333 20.0002 10.8333C22.3002 10.8333 24.1668 12.7 24.1668 15C24.1668 17.3 22.3002 19.1667 20.0002 19.1667Z" fill="#4A148C"/>
<circle cx="20" cy="14" r="8" fill="#4A148C"/>
<path d="M20.8621 7.14286V7.04286H20.7621H19.2383H19.1383V7.14286V14.7619V14.8619H19.2383H20.7621H20.8621V14.7619V7.14286ZM24.5069 8.72002L24.4366 8.66025L24.3714 8.72548L23.2895 9.80739L23.2107 9.88621L23.2976 9.95604C24.4787 10.9054 25.2335 12.3629 25.2335 14C25.2335 16.8933 22.8936 19.2333 20.0002 19.2333C17.1069 19.2333 14.7669 16.8933 14.7669 14C14.7669 12.3629 15.5217 10.9052 16.6958 9.94798L16.7816 9.87804L16.7033 9.79977L15.629 8.72548L15.5638 8.66025L15.4935 8.72002C13.9942 9.99518 13.0431 11.8816 13.0431 14C13.0431 17.8419 16.1583 20.9571 20.0002 20.9571C23.8421 20.9571 26.9574 17.8419 26.9574 14C26.9574 11.8816 26.0062 9.99518 24.5069 8.72002Z" fill="white" stroke="white" stroke-width="0.2"/>
</svg>
