<svg width="33" height="35" viewBox="0 0 33 35" fill="none" xmlns="http://www.w3.org/2000/svg">
<path d="M18.5216 2V1.1821H17.7037H16.3951H15.0864H14.2685V2V16.7222V17.5401H15.0864H17.7037H18.5216V16.7222V2ZM26.4126 6.61154L25.7122 6.01583L25.2022 6.78088L23.8935 8.74384L23.4786 9.36632L24.0617 9.83502C26.3376 11.6644 27.0976 14.4041 27.0976 17.8485C27.0976 23.6651 22.3941 28.3686 16.5775 28.3686C10.7609 28.3686 6.05734 23.6651 6.05734 17.8485C6.05734 14.4279 6.78392 12.0143 9.06004 10.1586L9.65478 9.67372L9.20876 9.0493L7.57296 6.75917L7.05557 6.03483L6.37751 6.61154C3.06042 9.43277 1.1821 13.1604 1.1821 17.8485C1.1821 26.3502 8.07575 33.2438 16.5775 33.2438C25.0792 33.2438 31.9728 26.3502 31.9728 17.8485C31.9728 13.1139 29.6894 9.39853 26.4126 6.61154Z" fill="#4A148C" stroke="#4A148C" stroke-width="1.6358"/>
</svg>
