<?xml version="1.0" encoding="UTF-8"?>
<svg width="1200pt" height="1200pt" version="1.1" viewBox="0 0 1200 1200" xmlns="http://www.w3.org/2000/svg">
 <path d="m600 40.355c-255.78 0-463.15 207.36-463.15 463.15 0 120.42 46.152 229.89 121.49 312.21 2.9023 3.1797 5.8438 6.3125 8.832 9.4062-0.60156 0.50391 332.84 334.51 332.84 334.51s333.42-334.01 332.82-334.51c80.531-83.328 130.3-196.6 130.3-321.62 0.023438-255.79-207.34-463.15-463.13-463.15zm0 157.52c32.027 0 57.926 25.934 57.926 57.949 0 31.98-25.895 57.926-57.926 57.926-32.027 0-57.926-25.945-57.926-57.926 0-32.016 25.898-57.949 57.926-57.949zm255.96 243.54c-3.6016 11.426-14.172 18.73-25.535 18.73-2.6992 0-5.3984-0.39453-8.0742-1.2344l-136.93-43.199v454.59c0 18.504-14.988 33.469-33.48 33.469-18.469 0-33.492-14.965-33.492-33.469v-244.8c-0.070312 0.046875 0-0.74219 0-1.2617 0-10.176-8.2578-18.434-18.445-18.434s-18.445 8.2578-18.445 18.434c0 0.52734 0.070312 1.3086 0 1.2617v244.8c0 18.504-15 33.469-33.492 33.469-18.48 0-33.48-14.965-33.48-33.469l0.003907-454.58-136.95 43.199c-14.137 4.4648-29.16-3.3945-33.602-17.496-4.4531-14.102 3.3828-29.148 17.484-33.602l176.24-55.57s23.09-7.9336 62.699-7.9336c39.371 0 61.754 7.9336 61.754 7.9336l176.24 55.57c14.09 4.4453 21.949 19.492 17.5 33.594z"/>
</svg>
