<svg width="100" height="100" viewBox="0 0 100 100" fill="none" xmlns="http://www.w3.org/2000/svg">
<path d="M70.5 80C70.5 81.9124 68.9657 84.2556 65.107 86.2688C61.3692 88.219 56.0322 89.5 50 89.5C43.9678 89.5 38.6308 88.219 34.893 86.2688C31.0343 84.2556 29.5 81.9124 29.5 80C29.5 78.0876 31.0343 75.7444 34.893 73.7312C38.6308 71.781 43.9678 70.5 50 70.5C56.0322 70.5 61.3692 71.781 65.107 73.7312C68.9657 75.7444 70.5 78.0876 70.5 80Z" stroke="white" stroke-width="5"/>
<path d="M68.5 80C68.5 81.8872 66.9311 83.9995 63.4713 85.7294C60.1012 87.4145 55.3405 88.5 50 88.5C44.6595 88.5 39.8988 87.4145 36.5287 85.7294C33.0689 83.9995 31.5 81.8872 31.5 80C31.5 78.1128 33.0689 76.0005 36.5287 74.2706C39.8988 72.5855 44.6595 71.5 50 71.5C55.3405 71.5 60.1012 72.5855 63.4713 74.2706C66.9311 76.0005 68.5 78.1128 68.5 80Z" stroke="#4A148C" stroke-width="3"/>
<ellipse cx="50" cy="80" rx="12" ry="6" fill="white"/>
<ellipse cx="50" cy="80" rx="10" ry="5" fill="#4A148C"/>
<path d="M50 80L29.2154 32.75L70.7846 32.75L50 80Z" fill="white"/>
<circle cx="50" cy="25" r="22" fill="white"/>
<path d="M50 76L31.8135 33.25L68.1865 33.25L50 76Z" fill="#4A148C"/>
<circle cx="50" cy="25" r="20" fill="#4A148C"/>
<rect width="28" height="28" transform="translate(36 13)" fill="#4A148C"/>
<path d="M50.0013 27C52.5796 27 54.668 24.9116 54.668 22.3333C54.668 19.755 52.5796 17.6666 50.0013 17.6666C47.423 17.6666 45.3346 19.755 45.3346 22.3333C45.3346 24.9116 47.423 27 50.0013 27ZM50.0013 29.3333C46.8863 29.3333 40.668 30.8966 40.668 34V36.3333H59.3346V34C59.3346 30.8966 53.1163 29.3333 50.0013 29.3333Z" fill="white"/>
</svg>
